<svg xmlns="http://www.w3.org/2000/svg" width="109" height="34" viewBox="0 0 109 34">
  <g id="tc-logo-white-sm" transform="translate(-227 -1217)">
    <g id="icon" transform="translate(227 1217)">
      <path id="Path_6" data-name="Path 6" d="M1.1,0H9.918a1.1,1.1,0,0,1,1.1,1.1V9.918a1.1,1.1,0,0,1-1.1,1.1H1.1A1.1,1.1,0,0,1,0,9.918V1.1A1.1,1.1,0,0,1,1.1,0Z" transform="translate(23.542 0)" fill="#ff5e34"/>
      <path id="Path_9" data-name="Path 9" d="M1.095,0h8.76A1.1,1.1,0,0,1,10.95,1.095v8.76A1.1,1.1,0,0,1,9.855,10.95H1.095A1.1,1.1,0,0,1,0,9.855V1.095A1.1,1.1,0,0,1,1.095,0Z" transform="translate(0 23.05)" fill="#36a9e0"/>
      <path id="Path_7" data-name="Path 7" d="M1.095,0h8.76A1.1,1.1,0,0,1,10.95,1.095v8.76A1.1,1.1,0,0,1,9.855,10.95H1.095A1.1,1.1,0,0,1,0,9.855V1.095A1.1,1.1,0,0,1,1.095,0Z" transform="translate(11.831 11.525)" fill="#2fe77f"/>
      <path id="Path_8" data-name="Path 8" d="M1.095,0h8.76A1.1,1.1,0,0,1,10.95,1.095v8.76A1.1,1.1,0,0,1,9.855,10.95H1.095A1.1,1.1,0,0,1,0,9.855V1.095A1.1,1.1,0,0,1,1.095,0Z" transform="translate(23.542 11.525)" fill="#ffc734"/>
      <path id="Path_11" data-name="Path 11" d="M1.095,0h8.76A1.1,1.1,0,0,1,10.95,1.095v8.76A1.1,1.1,0,0,1,9.855,10.95H1.095A1.1,1.1,0,0,1,0,9.855V1.095A1.1,1.1,0,0,1,1.095,0Z" transform="translate(23.542 23.05)" fill="#556587"/>
      <path id="Path_10" data-name="Path 10" d="M1.095,0h8.76A1.1,1.1,0,0,1,10.95,1.095v8.76A1.1,1.1,0,0,1,9.855,10.95H1.095A1.1,1.1,0,0,1,0,9.855V1.095A1.1,1.1,0,0,1,1.095,0Z" transform="translate(11.831 23.05)" fill="#525dac"/>
    </g>
    <path id="Path_4" data-name="Path 4" d="M18.516-144.837v3.322H13.3v13.986H9.4v-13.986H4.18v-3.322Zm2.5,17.308v-17.308H32.7v3.272H24.91v3.4h6.918v3.2H24.91v4.171h8.367v3.272Zm26.747,0q-.289-.9-.621-1.853l-.662-1.893h-6.76l-.657,1.9q-.329.952-.613,1.848H34.4q.977-2.8,1.854-5.17t1.716-4.471q.839-2.1,1.653-3.984t1.691-3.684h3.693q.853,1.8,1.681,3.684t1.669,3.984q.841,2.1,1.719,4.471t1.857,5.17ZM43.08-140.916q-.13.377-.381,1.026t-.572,1.5q-.321.851-.717,1.873t-.806,2.145h4.949q-.4-1.126-.77-2.152t-.708-1.876q-.335-.851-.588-1.5T43.08-140.916Zm15.672-3.921q.451.824,1.039,2.036t1.227,2.622q.639,1.411,1.265,2.885l1.177,2.772,1.177-2.772q.626-1.474,1.265-2.885t1.227-2.622q.588-1.211,1.039-2.036h3.547q.25,1.723.462,3.859t.375,4.446q.162,2.31.3,4.633t.237,4.371h-3.8q-.075-2.523-.2-5.495t-.375-5.994q-.451,1.049-1,2.323t-1.09,2.548q-.539,1.274-1.04,2.435t-.852,1.986H62.011q-.351-.824-.852-1.986t-1.04-2.435q-.539-1.274-1.09-2.548t-1-2.323q-.25,3.022-.375,5.994t-.2,5.495h-3.8q.1-2.048.237-4.371t.3-4.633q.162-2.31.375-4.446t.462-3.859Z" transform="translate(262.577 1365.754)" fill="#b9b9b0"/>
    <path id="Path_5" data-name="Path 5" d="M4.68-65.629a3.853,3.853,0,0,1,.23-1.336,3.193,3.193,0,0,1,.665-1.094A3.173,3.173,0,0,1,6.631-68.8a3.486,3.486,0,0,1,1.417-.273A4.572,4.572,0,0,1,9-68.978a4.658,4.658,0,0,1,.845.267l-.385,1.479a4.667,4.667,0,0,0-.572-.174,2.988,2.988,0,0,0-.7-.075,1.467,1.467,0,0,0-1.224.51,2.1,2.1,0,0,0-.4,1.342,2.173,2.173,0,0,0,.379,1.367,1.588,1.588,0,0,0,1.324.485,4.541,4.541,0,0,0,.721-.062,3.064,3.064,0,0,0,.708-.2l.261,1.516a4.344,4.344,0,0,1-.808.236,5.329,5.329,0,0,1-1.069.1,4.023,4.023,0,0,1-1.541-.267,2.9,2.9,0,0,1-1.063-.727,2.836,2.836,0,0,1-.609-1.087A4.618,4.618,0,0,1,4.68-65.629Zm12.329-.012a4.251,4.251,0,0,1-.224,1.411,3.065,3.065,0,0,1-.646,1.094,2.909,2.909,0,0,1-1.013.7,3.38,3.38,0,0,1-1.324.249,3.347,3.347,0,0,1-1.311-.249,2.908,2.908,0,0,1-1.013-.7,3.215,3.215,0,0,1-.659-1.094,4.048,4.048,0,0,1-.236-1.411,3.9,3.9,0,0,1,.242-1.4,3.185,3.185,0,0,1,.671-1.081,3.014,3.014,0,0,1,1.019-.7,3.281,3.281,0,0,1,1.286-.249,3.314,3.314,0,0,1,1.3.249,2.949,2.949,0,0,1,1.013.7,3.159,3.159,0,0,1,.659,1.081A4,4,0,0,1,17.009-65.641Zm-1.889,0a2.328,2.328,0,0,0-.342-1.348,1.118,1.118,0,0,0-.976-.491,1.133,1.133,0,0,0-.982.491,2.3,2.3,0,0,0-.348,1.348,2.356,2.356,0,0,0,.348,1.361,1.125,1.125,0,0,0,.982.5,1.109,1.109,0,0,0,.976-.5A2.389,2.389,0,0,0,15.12-65.641Zm3.318-3.032a10.323,10.323,0,0,1,1.218-.255,10.008,10.008,0,0,1,1.566-.118,3.814,3.814,0,0,1,1.386.217,2.081,2.081,0,0,1,.876.615,2.4,2.4,0,0,1,.46.945,5.026,5.026,0,0,1,.137,1.218v3.691H22.229v-3.467a2.5,2.5,0,0,0-.236-1.268.963.963,0,0,0-.882-.373q-.2,0-.423.019t-.4.043v5.046H18.438Zm9.2,4.984a1.849,1.849,0,0,0,.721-.1.384.384,0,0,0,.211-.385.472.472,0,0,0-.273-.391,5.2,5.2,0,0,0-.833-.379,8.535,8.535,0,0,1-.789-.336,2.32,2.32,0,0,1-.6-.416,1.684,1.684,0,0,1-.385-.578,2.14,2.14,0,0,1-.137-.808,1.747,1.747,0,0,1,.684-1.454,2.973,2.973,0,0,1,1.877-.534,6.018,6.018,0,0,1,1.143.106,5.32,5.32,0,0,1,.87.23L29.8-67.294a6.8,6.8,0,0,0-.7-.2,3.816,3.816,0,0,0-.851-.087q-.87,0-.87.485a.5.5,0,0,0,.037.2.424.424,0,0,0,.149.168,2.121,2.121,0,0,0,.3.175q.193.094.491.207a7.563,7.563,0,0,1,1.007.445,2.4,2.4,0,0,1,.628.473,1.462,1.462,0,0,1,.323.564,2.5,2.5,0,0,1,.093.719,1.657,1.657,0,0,1-.727,1.463,3.625,3.625,0,0,1-2.057.5,5.911,5.911,0,0,1-1.448-.149,5.869,5.869,0,0,1-.8-.249l.311-1.5a6.074,6.074,0,0,0,.969.292A4.714,4.714,0,0,0,27.635-63.69Zm4.089-6.835,1.852-.3V-68.9H35.8v1.541H33.575v2.3a1.829,1.829,0,0,0,.205.932.88.88,0,0,0,.826.348,3.538,3.538,0,0,0,.615-.056,3.17,3.17,0,0,0,.578-.155l.261,1.442a5.268,5.268,0,0,1-.746.236,4.345,4.345,0,0,1-1.007.1,3.314,3.314,0,0,1-1.255-.205,1.969,1.969,0,0,1-.8-.572,2.128,2.128,0,0,1-.416-.889,5.245,5.245,0,0,1-.118-1.156Zm9.52,3.269q-.249-.062-.584-.131a3.61,3.61,0,0,0-.721-.068,3.345,3.345,0,0,0-.416.031,2.451,2.451,0,0,0-.367.068v5H37.3V-68.55a11.122,11.122,0,0,1,1.174-.329,6.767,6.767,0,0,1,1.51-.155q.149,0,.36.019t.423.05q.211.031.423.075a1.988,1.988,0,0,1,.36.106Zm6.885,4.673a10.32,10.32,0,0,1-1.218.255,10.008,10.008,0,0,1-1.566.118,3.718,3.718,0,0,1-1.386-.224,2.1,2.1,0,0,1-.876-.628,2.45,2.45,0,0,1-.46-.963,5.181,5.181,0,0,1-.137-1.23V-68.9h1.852v3.418a2.649,2.649,0,0,0,.236,1.293.939.939,0,0,0,.882.4q.2,0,.423-.019t.4-.043V-68.9h1.852Zm1.429-3.045a3.853,3.853,0,0,1,.23-1.336,3.193,3.193,0,0,1,.665-1.094,3.173,3.173,0,0,1,1.056-.739,3.486,3.486,0,0,1,1.417-.273,4.572,4.572,0,0,1,.957.093,4.658,4.658,0,0,1,.845.267l-.385,1.479a4.666,4.666,0,0,0-.572-.174,2.988,2.988,0,0,0-.7-.075,1.467,1.467,0,0,0-1.224.51,2.1,2.1,0,0,0-.4,1.342,2.173,2.173,0,0,0,.379,1.367,1.588,1.588,0,0,0,1.324.485,4.541,4.541,0,0,0,.721-.062,3.064,3.064,0,0,0,.708-.2l.261,1.516a4.344,4.344,0,0,1-.808.236,5.328,5.328,0,0,1-1.069.1,4.023,4.023,0,0,1-1.541-.267,2.9,2.9,0,0,1-1.063-.727,2.836,2.836,0,0,1-.609-1.087A4.618,4.618,0,0,1,49.558-65.629Zm6.463-4.9,1.852-.3V-68.9H60.1v1.541H57.872v2.3a1.829,1.829,0,0,0,.205.932.88.88,0,0,0,.826.348,3.538,3.538,0,0,0,.615-.056,3.17,3.17,0,0,0,.578-.155l.261,1.442a5.268,5.268,0,0,1-.746.236,4.345,4.345,0,0,1-1.007.1,3.314,3.314,0,0,1-1.255-.205,1.969,1.969,0,0,1-.8-.572,2.128,2.128,0,0,1-.416-.889,5.246,5.246,0,0,1-.118-1.156Zm11.446,4.884a4.251,4.251,0,0,1-.224,1.411,3.065,3.065,0,0,1-.646,1.094,2.909,2.909,0,0,1-1.013.7,3.38,3.38,0,0,1-1.324.249,3.347,3.347,0,0,1-1.311-.249,2.909,2.909,0,0,1-1.013-.7,3.215,3.215,0,0,1-.659-1.094,4.048,4.048,0,0,1-.236-1.411,3.9,3.9,0,0,1,.242-1.4,3.185,3.185,0,0,1,.671-1.081,3.014,3.014,0,0,1,1.019-.7,3.281,3.281,0,0,1,1.286-.249,3.314,3.314,0,0,1,1.3.249,2.949,2.949,0,0,1,1.013.7,3.158,3.158,0,0,1,.659,1.081A4,4,0,0,1,67.467-65.641Zm-1.889,0a2.328,2.328,0,0,0-.342-1.348,1.118,1.118,0,0,0-.976-.491,1.133,1.133,0,0,0-.982.491,2.3,2.3,0,0,0-.348,1.348,2.356,2.356,0,0,0,.348,1.361,1.125,1.125,0,0,0,.982.5,1.109,1.109,0,0,0,.976-.5A2.389,2.389,0,0,0,65.578-65.641Zm7.258-1.616q-.249-.062-.584-.131a3.61,3.61,0,0,0-.721-.068,3.345,3.345,0,0,0-.416.031,2.452,2.452,0,0,0-.367.068v5H68.9V-68.55a11.122,11.122,0,0,1,1.174-.329,6.767,6.767,0,0,1,1.51-.155q.149,0,.36.019t.423.05q.211.031.423.075a1.988,1.988,0,0,1,.36.106Z" transform="translate(262.853 1312.522)" fill="#b9b9b0"/>
  </g>
</svg>
